#!OML:ASF F:\VICON\USERDATA\INSTALL\rory3\rory3.ASF
:FULLY-SPECIFIED
:DEGREES
96
root 0.238862 18.0105 -11.6497 -3.06256 0.812428 -3.89298
lowerback 8.80881 -1.92703 0.980086
upperback -0.154601 -2.27384 3.75653
thorax -4.99063 -1.1025 3.66593
lowerneck -17.0727 -2.58447 -1.13192
upperneck 20.7196 -3.05329 -1.03563
head 9.35204 -1.63531 -0.565139
rclavicle 1.37907e-014 -1.11319e-014
rhumerus -39.3625 -14.8722 -76.8261
rradius 27.8447
rwrist 1.95493
rhand -10.5579 22.4492
rfingers 7.12502
rthumb 15.4464 -6.95368
lclavicle 1.37907e-014 -1.11319e-014
lhumerus -35.5671 -1.78259 81.398
lradius 34.401
lwrist 2.58417
lhand -22.0378 30.0119
lfingers 7.12502
lthumb 4.3723 59.9468
rfemur -21.9596 6.23445 27.3313
rtibia 30.4267
rfoot -4.23365 -4.30133
rtoes 1.86367
lfemur 5.06288 -4.61513 -17.6998
ltibia 52.9856
lfoot 10.7015 -20.3087
ltoes -23.1542
97
root 0.223383 18.0816 -11.4604 -2.98512 0.55758 -4.26174
lowerback 8.76258 -1.82298 1.30325
upperback -0.184175 -2.09555 3.8866
thorax -5.01244 -1.02043 3.59679
lowerneck -16.9073 -2.61065 -1.23044
upperneck 20.4965 -3.07566 -0.990476
head 9.24661 -1.64837 -0.530976
rclavicle -4.34841e-015 -8.74653e-015
rhumerus -39.1767 -14.5843 -76.9433
rradius 27.8433
rwrist 1.82095
rhand -10.5108 21.8512
rfingers 7.12502
rthumb 15.4918 -7.5481
lclavicle -4.34841e-015 -8.74653e-015
lhumerus -35.6577 -1.89831 81.7327
lradius 34.0724
lwrist 2.67758
lhand -22.3294 29.5494
lfingers 7.12502
lthumb 4.0907 59.4899
rfemur -21.4354 6.31294 27.9533
rtibia 30.659
rfoot -4.70034 -4.29529
rtoes 2.34511
lfemur 2.05088 -4.22474 -17.1049
ltibia 55.283
lfoot 15.2223 -18.0253
ltoes -13.97
98
root 0.211054 18.0889 -11.2826 -2.97023 0.378624 -4.55226
lowerback 8.73219 -1.75496 1.5523
upperback -0.16649 -1.97578 3.99047
thorax -4.98802 -0.966399 3.54847
lowerneck -16.8106 -2.62428 -1.3514
upperneck 20.3239 -3.07604 -0.934895
head 9.17227 -1.65161 -0.488504
rclavicle -1.13618e-014 6.12257e-014
rhumerus -38.9093 -14.1627 -77.1242
rradius 27.7351
rwrist 1.47862
rhand -10.9226 21.1367
rfingers 7.12502
rthumb 15.0951 -8.29289
lclavicle -1.13618e-014 6.12257e-014
lhumerus -35.8286 -1.98042 82.0725
lradius 33.9769
lwrist 2.51341
lhand -21.9833 30.2486
lfingers 7.12502
lthumb 4.4249 60.1824
rfemur -21.035 6.45451 28.4482
rtibia 31.0964
rfoot -5.56165 -4.41061
rtoes 1.85351
lfemur 0.898593 -3.88269 -16.5677
ltibia 57.501
lfoot 14.6801 -18.2722
ltoes -17.8195
99
root 0.203214 18.0227 -11.1273 -3.15853 0.271174 -4.78273
lowerback 8.94243 -1.6397 1.84178
upperback -0.0811859 -1.78816 3.95073
thorax -5.03634 -0.880975 3.32522
lowerneck -16.865 -2.69301 -1.2711
upperneck 20.3223 -3.19732 -0.911401
head 9.18057 -1.69912 -0.509963
rclavicle -2.10277e-014 2.14687e-014
rhumerus -38.6197 -14.25 -77.3095
rradius 27.6171
rwrist 1.3451
rhand -11.1046 20.4207
rfingers 7.12502
rthumb 14.9197 -9.02197
lclavicle -2.10277e-014 2.14687e-014
lhumerus -35.8469 -2.30185 82.3143
lradius 33.8529
lwrist 2.38731
lhand -21.741 29.3259
lfingers 7.12502
lthumb 4.65891 59.2547
rfemur -20.5193 6.53041 28.873
rtibia 31.3922
rfoot -6.29513 -4.51694
rtoes 1.6708
lfemur 1.74063 -2.22158 -16.0296
ltibia 59.7618
lfoot -4.98046 -21.4642
ltoes -51.1962
100
root 0.192122 18.0216 -10.9596 -3.38681 0.0820325 -5.06016
lowerback 9.21669 -1.48563 2.20868
upperback -0.0104682 -1.53686 3.88949
thorax -5.13878 -0.766083 3.02913
lowerneck -16.9172 -2.82187 -1.03364
upperneck 20.4063 -3.4008 -1.07928
head 9.21118 -1.79437 -0.634376
rclavicle -4.52856e-015 -4.77083e-015
rhumerus -38.4177 -14.3952 -77.488
rradius 27.4554
rwrist 1.80551
rhand -11.484 20.1192
rfingers 7.12502
rthumb 14.5542 -9.35026
lclavicle -4.52856e-015 -4.77083e-015
lhumerus -35.8403 -2.69145 82.4938
lradius 33.6319
lwrist 2.16511
lhand -23.0606 26.0103
lfingers 7.12502
lthumb 3.38459 55.9632
rfemur -19.7487 6.66763 29.3676
rtibia 31.5749
rfoot -6.84775 -4.61612
rtoes 1.58343
lfemur 0.623879 -1.52369 -15.4849
ltibia 61.8505
lfoot -8.78619 -19.4343
ltoes -53.4191
101
root 0.181606 18.0685 -10.7768 -3.50186 -0.135338 -5.29578
lowerback 9.31233 -1.36164 2.4839
upperback 0.0581828 -1.33832 3.92417
thorax -5.13329 -0.67442 2.8851
lowerneck -16.8728 -2.86843 -1.08836
upperneck 20.3901 -3.45455 -1.06414
head 9.19883 -1.82199 -0.62606
rclavicle -1.95057e-015 7.95139e-015
rhumerus -38.1163 -14.1568 -77.6746
rradius 27.2745
rwrist 2.49059
rhand -12.557 20.0716
rfingers 7.12502
rthumb 13.5202 -9.46949
lclavicle -1.95057e-015 7.95139e-015
lhumerus -35.896 -2.82416 82.7742
lradius 33.3515
lwrist 2.03488
lhand -29.2406 14.4515
lfingers 7.12502
lthumb -2.5841 44.4156
rfemur -18.9111 6.70898 29.799
rtibia 31.6805
rfoot -7.56197 -4.59441
rtoes 1.50802
lfemur -1.96616 -1.71636 -15.0459
ltibia 63.5926
lfoot 3.73747 -19.8645
ltoes -41.0049
